<?xml version="1.0" encoding="utf-8"?>
<!-- Generated by IcoMoon.io -->
<!DOCTYPE svg PUBLIC "-//W3C//DTD SVG 1.1//EN" "http://www.w3.org/Graphics/SVG/1.1/DTD/svg11.dtd">
<svg version="1.1" xmlns="http://www.w3.org/2000/svg" xmlns:xlink="http://www.w3.org/1999/xlink" width="32" height="32" viewBox="0 0 32 32">
<path d="M26.354 0.5h-20.707c-2.831 0-5.147 2.316-5.147 5.147v20.707c0 2.831 2.316 5.147 5.147 5.147h20.707c2.831 0 5.147-2.316 5.147-5.147v-20.707c0-2.831-2.316-5.147-5.147-5.147zM10.424 14.063h11.153c0.211 0.607 0.326 1.259 0.326 1.938 0 3.255-2.649 5.904-5.904 5.904s-5.904-2.649-5.904-5.904c0-0.678 0.115-1.33 0.327-1.938zM27.625 14.064v11.623c0 1.066-0.872 1.938-1.938 1.938h-19.375c-1.066 0-1.938-0.872-1.938-1.938v-11.625h3.030c-0.14 0.624-0.215 1.272-0.215 1.938 0 4.857 3.952 8.81 8.81 8.81s8.81-3.952 8.81-8.81c0-0.666-0.075-1.314-0.215-1.938l3.030 0.002zM27.625 7.281c0 0.533-0.436 0.969-0.969 0.969h-1.938c-0.533 0-0.969-0.436-0.969-0.969v-1.938c0-0.533 0.436-0.969 0.969-0.969h1.938c0.533 0 0.969 0.436 0.969 0.969v1.938z"></path>
</svg>
