<?xml version="1.0" encoding="utf-8"?>
<!-- Generated by IcoMoon.io -->
<!DOCTYPE svg PUBLIC "-//W3C//DTD SVG 1.1//EN" "http://www.w3.org/Graphics/SVG/1.1/DTD/svg11.dtd">
<svg version="1.1" xmlns="http://www.w3.org/2000/svg" xmlns:xlink="http://www.w3.org/1999/xlink" width="32" height="32" viewBox="0 0 32 32">
<path d="M0.877 31.123c0.589 0.589 1.35 0.877 2.118 0.877s1.536-0.294 2.118-0.877l7.066-7.066c1.984 1.229 4.307 1.946 6.816 1.946 7.181 0 12.998-5.818 12.998-12.998s-5.811-13.005-12.992-13.005-12.998 5.818-12.998 12.998c0 2.502 0.717 4.832 1.946 6.816l-7.072 7.066c-1.171 1.171-1.171 3.072 0 4.243zM11.002 12.998c0-4.41 3.59-8 8-8s8 3.59 8 8-3.59 8-8 8c-4.416 0-8-3.59-8-8z"></path>
</svg>
