<?xml version="1.0" encoding="utf-8"?>
<!-- Generated by IcoMoon.io -->
<!DOCTYPE svg PUBLIC "-//W3C//DTD SVG 1.1//EN" "http://www.w3.org/Graphics/SVG/1.1/DTD/svg11.dtd">
<svg version="1.1" xmlns="http://www.w3.org/2000/svg" xmlns:xlink="http://www.w3.org/1999/xlink" width="32" height="32" viewBox="0 0 32 32">
<path d="M9.376 0.5l-2.094 4.155-2.094-4.155h-2.672l3.775 6.579 0.022-0.013v5.059h1.938v-5.059l0.022 0.013 3.775-6.579z" fill="#444444"></path>
<path d="M15.031 4.375c0.525 0 0.969 0.444 0.969 0.969v3.875c0 0.525-0.444 0.969-0.969 0.969s-0.969-0.444-0.969-0.969v-3.875c0-0.525 0.444-0.969 0.969-0.969zM15.031 2.438c-1.598 0-2.906 1.308-2.906 2.906v3.875c0 1.598 1.308 2.906 2.906 2.906s2.906-1.308 2.906-2.906v-3.875c0-1.598-1.308-2.906-2.906-2.906v0z" fill="#444444"></path>
<path d="M23.75 2.438v7.628c-0.846 0.705-1.938 1.131-1.938-1.381v-6.247h-1.938v6.64h0.003c0.030 1.601 0.367 4.485 3.872 2.141v0.907h1.938v-9.688h-1.938z" fill="#444444"></path>
<path d="M26.656 21.813c-0.534 0-0.969 0.435-0.969 0.969v0.969h1.938v-0.969c0-0.534-0.435-0.969-0.969-0.969z" fill="#444444"></path>
<path d="M17.938 22.781v5.086c0.656 0.656 1.938 0.727 1.938-0.242s0-3.573 0-4.541-0.969-1.272-1.938-0.303z" fill="#444444"></path>
<path d="M31.341 18.105c-0.084-1.116-0.485-2.027-1.204-2.732s-1.637-1.090-2.757-1.153c-2.113-0.106-6.946-0.158-11.193-0.158s-9.424 0.052-11.537 0.158c-1.12 0.063-2.038 0.448-2.757 1.153s-1.12 1.616-1.204 2.732c-0.127 2.274-0.19 3.098-0.19 4.235s0.063 2.842 0.19 5.117c0.084 1.116 0.486 2.027 1.204 2.732s1.637 1.090 2.757 1.153c2.113 0.106 7.29 0.158 11.537 0.158s9.080-0.052 11.193-0.158c1.12-0.063 2.038-0.448 2.757-1.153s1.12-1.616 1.204-2.732c0.106-1.895 0.159-3.601 0.159-5.117s-0.053-2.34-0.159-4.235zM6.313 29.563h-1.938v-9.688h-1.938v-1.938h5.813v1.938h-1.938v9.688zM14.063 29.563h-1.938v-0.907c-3.683 2.067-3.842 0.067-3.872-1.535h-0.003v-5.308h1.938v5.338c0 1.17 1.092 1.057 1.938 0.353v-5.69h1.938v7.75zM21.813 27.597c0 2.025-2.074 2.616-3.875 1.041v0.924h-1.938v-11.625h1.938v3.148c1.938-1.938 3.875-1.211 3.875 0.727s0 3.669 0 5.784zM29.563 23.75v0.969h-3.875v1.938c0 0.534 0.435 0.969 0.969 0.969s0.969-0.435 0.969-0.969v-0.969h1.938v0.969c0 1.602-1.304 2.906-2.906 2.906s-2.906-1.304-2.906-2.906v-3.875c0-1.602 1.304-2.906 2.906-2.906s2.906 1.304 2.906 2.906v0.969z" fill="#444444"></path>
</svg>
